<svg xmlns="http://www.w3.org/2000/svg" width="264" height="36" fill="none" viewBox="0 0 264 36"><g clip-path="url(#clip0_1812_10138)"><path fill="#CF9BFE" d="M55.983 5.246c-.248-1.236-.98-1.91-2.206-2.98-2.218 2.772-5.404 5.053-9.337 7.351.946.903 1.315 1.693 1.643 3.099 4.309-2.181 6.526-3.778 9.9-7.47Z"/><g clip-path="url(#clip1_1812_10138)"><path fill="#000" stroke="#000" stroke-miterlimit="10" stroke-width=".265" d="M40.762 23.561c0 .785-.106 1.47-.315 2.045a4.478 4.478 0 0 1-.878 1.497 4.451 4.451 0 0 1-1.35 1.015 8.187 8.187 0 0 1-1.743.617 13.24 13.24 0 0 1-2.034.317c-.72.06-1.465.091-2.237.091H17.23V8.906h14.701c.592 0 1.183.022 1.78.072.596.05 1.165.14 1.706.272.54.132 1.044.318 1.507.554.467.235.869.544 1.216.93.346.38.614.843.809 1.382.194.54.29 1.18.29 1.914 0 1.315-.327 2.358-.988 3.129-.662.77-1.702 1.283-3.126 1.537 1.004.068 1.859.217 2.575.449.717.23 1.3.544 1.748.943.448.399.781.884.99 1.46.207.576.314 1.247.314 2.009l.009.004Zm-6.953-8.66a2.26 2.26 0 0 0-.12-.73 1.395 1.395 0 0 0-.435-.613c-.208-.177-.494-.317-.855-.426-.36-.109-.823-.163-1.382-.163h-8.215v3.8h8.215c.559 0 1.021-.05 1.382-.146.36-.1.647-.23.855-.399.208-.167.356-.367.435-.594.078-.23.12-.471.12-.73Zm1.29 8.03c0-.463-.079-.835-.24-1.111-.163-.281-.412-.494-.75-.648-.342-.155-.78-.254-1.322-.304-.54-.05-1.188-.073-1.937-.073h-8.048v4.285h8.048c.75 0 1.396-.022 1.937-.072.541-.05.98-.154 1.322-.309.343-.158.592-.376.75-.657.161-.281.24-.649.24-1.111ZM66.997 28.14c-1.692.55-3.38.944-5.067 1.189a36.65 36.65 0 0 1-5.173.363c-2.251 0-4.258-.24-6.014-.717-1.757-.476-3.236-1.165-4.438-2.068a8.967 8.967 0 0 1-2.746-3.314c-.63-1.306-.948-2.784-.948-4.435 0-1.533.319-2.952.952-4.262.633-1.31 1.535-2.449 2.705-3.42 1.165-.965 2.575-1.722 4.225-2.266 1.65-.545 3.495-.817 5.524-.817 1.873 0 3.588.25 5.141.744 1.558.494 2.894 1.229 4.008 2.204 1.114.97 1.984 2.172 2.598 3.596.615 1.423.925 3.065.925 4.92v1.355H48.357c.18.64.476 1.224.892 1.755.416.53.98.984 1.688 1.356.712.372 1.586.662 2.621.87 1.035.204 2.275.309 3.717.309 1.022 0 2.02-.064 3.005-.186.98-.122 1.895-.286 2.746-.485.85-.2 1.618-.427 2.307-.671.684-.245 1.239-.49 1.66-.735v4.73l.004-.014ZM63.15 17.2a4.765 4.765 0 0 0-.458-1.556c-.254-.535-.657-1.02-1.207-1.451-.55-.43-1.27-.79-2.163-1.066-.892-.28-2.002-.421-3.333-.421-1.253 0-2.335.154-3.246.458-.91.303-1.673.684-2.288 1.133-.615.45-1.096.939-1.433 1.46-.342.522-.56 1.002-.661 1.442H63.15ZM91.804 8.906l5.27 14.052 5.705-14.052h5.783l-8.289 20.237h-6.185l-5.39-13.608-5.377 13.608h-6.186L68.832 8.906h5.798l5.584 13.757 5.39-13.757h6.2ZM127.752 29.143v-1.99c-.712.38-1.475.72-2.288 1.015a22.785 22.785 0 0 1-5.275 1.215c-.938.105-1.881.155-2.829.155a16.64 16.64 0 0 1-3.222-.309c-1.036-.204-1.956-.54-2.756-1.002a5.594 5.594 0 0 1-1.927-1.814c-.486-.748-.731-1.66-.731-2.739 0-1.364.379-2.503 1.142-3.41.763-.906 1.923-1.65 3.486-2.23 1.562-.58 3.536-1.025 5.922-1.343 2.385-.317 5.214-.557 8.478-.734v-.427c0-.335-.088-.666-.273-.992-.18-.332-.508-.617-.984-.871-.476-.25-1.128-.454-1.951-.612-.828-.159-1.882-.236-3.162-.236-1.013 0-2.011.05-2.996.154-.985.104-1.937.245-2.852.422-.916.177-1.785.38-2.608.617-.822.235-1.567.48-2.237.734v-4.86a44.728 44.728 0 0 1 5.076-.952 52.736 52.736 0 0 1 2.852-.296 36.78 36.78 0 0 1 2.765-.109c1.733 0 3.328.14 4.789.422 1.461.281 2.718.716 3.777 1.306 1.054.59 1.882 1.333 2.478 2.24.596.902.892 1.977.892 3.224v13.417h-5.57l.004.005Zm0-9.232c-2.14.077-3.962.19-5.459.34-1.498.145-2.742.317-3.731.517-.99.195-1.771.408-2.335.635-.564.226-.989.458-1.267.693-.282.236-.453.472-.517.708a2.463 2.463 0 0 0-.097.648c0 .236.064.463.194.685.129.222.356.412.684.58.324.168.758.3 1.299.4.541.1 1.221.145 2.043.145.911 0 1.803-.069 2.672-.205.87-.136 1.697-.326 2.478-.566.782-.24 1.517-.526 2.201-.853.684-.33 1.299-.68 1.84-1.052V19.92l-.005-.01ZM157.441 29.143c-.102-1.102-.37-2.063-.809-2.893a7.763 7.763 0 0 0-1.66-2.145 9.24 9.24 0 0 0-2.251-1.487 14.963 14.963 0 0 0-2.575-.934 17.559 17.559 0 0 0-2.635-.485 22.606 22.606 0 0 0-2.441-.14h-1.651v8.084h-5.57V8.906h5.57v7.808h1.142c.772 0 1.577-.059 2.418-.177a16.158 16.158 0 0 0 2.501-.557 13.607 13.607 0 0 0 2.381-.989 8.925 8.925 0 0 0 2.043-1.474 7.981 7.981 0 0 0 1.503-2.008c.402-.762.651-1.628.749-2.599h5.677c-.102 1.07-.319 2.036-.652 2.902a10.21 10.21 0 0 1-1.248 2.322 9.903 9.903 0 0 1-1.66 1.791c-.61.512-1.234.952-1.877 1.32a13.6 13.6 0 0 1-1.914.911c-.638.24-1.23.426-1.78.553.703.11 1.429.277 2.187.508a14.28 14.28 0 0 1 2.247.912c.739.376 1.447.843 2.126 1.392a10.363 10.363 0 0 1 1.826 1.931c.541.735.99 1.574 1.35 2.517.361.943.592 2.004.689 3.183h-5.677l-.009-.009ZM235.652 13.223c-.652 0-1.234.022-1.748.072-.517.05-.952.168-1.312.354a1.872 1.872 0 0 0-.828.834c-.19.367-.287.87-.287 1.51v.753h15.557v4.317h-15.557v8.085h-5.57V15.54c0-1.043.157-1.973.471-2.798.315-.825.842-1.52 1.586-2.086.74-.562 1.72-.998 2.945-1.297 1.22-.3 2.741-.449 4.563-.449h12.297v4.317h-12.117v-.004ZM192.927 18.881c0 1.778-.333 3.347-.999 4.707a9.253 9.253 0 0 1-2.857 3.415c-1.239.916-2.741 1.605-4.507 2.072-1.766.467-3.75.703-5.95.703-2.201 0-4.189-.236-5.968-.703-1.776-.467-3.292-1.156-4.54-2.072a9.342 9.342 0 0 1-2.889-3.415c-.675-1.36-1.013-2.929-1.013-4.707 0-1.777.338-3.346 1.013-4.706a9.233 9.233 0 0 1 2.889-3.41c1.248-.916 2.76-1.605 4.54-2.072 1.775-.467 3.763-.699 5.968-.699s4.184.236 5.95.699c1.766.467 3.268 1.156 4.507 2.072a9.24 9.24 0 0 1 2.857 3.41c.666 1.36.999 2.929.999 4.706ZM223.429 18.881c0 1.778-.333 3.347-.999 4.707a9.244 9.244 0 0 1-2.857 3.415c-1.239.916-2.741 1.605-4.507 2.072-1.766.467-3.749.703-5.95.703-2.2 0-4.188-.236-5.968-.703-1.775-.467-3.291-1.156-4.54-2.072a9.351 9.351 0 0 1-2.889-3.415c-.675-1.36-1.012-2.929-1.012-4.707 0-1.777.337-3.346 1.012-4.706a9.243 9.243 0 0 1 2.889-3.41c1.249-.916 2.76-1.605 4.54-2.072 1.775-.467 3.763-.699 5.968-.699s4.184.236 5.95.699c1.766.467 3.268 1.156 4.507 2.072a9.23 9.23 0 0 1 2.857 3.41c.666 1.36.999 2.929.999 4.706ZM221.667 8.874l-2.311-2.122c-2.062-1.791-4.817-2.63-7.549-2.313l-4.175.49-.499-4.117 4.174-.49c3.944-.463 7.91.757 10.878 3.346l.042.037 2.33 2.14-2.89 3.024v.005Z"/><path fill="#CF9BFE" d="M130.505 7.292c-.559-1.06-1.555-1.895-4.323-2.82.591-1.115 1.408-1.921 2.8-2.66 1.962.972 3.051 1.714 4.368 3.38-1.234.393-1.837.934-2.842 2.103l-.003-.003Z"/></g><path fill="#06E57F" d="M12.567 18.516c-.668 1.268-1.86 2.266-5.169 3.371.707 1.334 1.684 2.298 3.348 3.18 2.347-1.16 3.649-2.048 5.223-4.04-1.475-.47-2.196-1.117-3.398-2.515l-.004.004Z"/><path fill="#F1543D" d="M205.83 28.201c-.598 1.138-1.667 2.033-4.635 3.024.634 1.196 1.51 2.06 3.002 2.852 2.105-1.042 3.272-1.837 4.684-3.623-1.322-.422-1.969-1.002-3.048-2.256l-.003.003Z"/><path fill="#53ACE4" d="m166.49 2.101 11.864 9.212c-5.843 3.204-5.843 3.204-12.023 6.555L166.49 2.1Z"/><circle cx="166.235" cy="2.152" r="2.065" fill="#F90324" transform="rotate(-48.646 166.235 2.152)"/><path fill="#F1543D" d="M88.698 30.515c.189.94.745 1.455 1.68 2.269 1.688-2.11 4.113-3.847 7.108-5.597-.72-.688-1.001-1.289-1.251-2.36-3.28 1.661-4.969 2.877-7.537 5.688Z"/><path fill="#06E382" d="M257.413 21.882c-.242-1.209-.957-1.869-2.158-2.914-2.169 2.71-5.284 4.942-9.131 7.19.925.882 1.286 1.654 1.607 3.03 4.214-2.134 6.382-3.695 9.682-7.306Z"/></g><defs><clipPath id="clip0_1812_10138"><path fill="#fff" d="M0 0h264v36H0z"/></clipPath><clipPath id="clip1_1812_10138"><path fill="#fff" d="M17 0h231v30H17z"/></clipPath></defs></svg>