<svg xmlns="http://www.w3.org/2000/svg" width="40" height="18" fill="none" viewBox="0 0 40 18"><g clip-path="url(#clip0_1838_17051)"><g fill="#010101" clip-path="url(#clip1_1838_17051)"><path d="M24.277 2.908c0 1.108 0 1.108 2.178 1.108 1.81 0 2.4.147 3.323.96 1.182.997 2.105.96 2.474-.037.517-1.33-2.954-3.139-5.944-3.139-1.994 0-2.031 0-2.031 1.108ZM7.108 6.01C4.782 6.895 3.6 8.445 3.6 10.698c0 3.692 2.252 5.501 6.83 5.501 4.432 0 6.832-1.846 6.832-5.243 0-1.957-1.034-3.73-2.585-4.541-1.662-.85-5.76-1.071-7.57-.407ZM21.951 6.01c-3.655 1.366-4.91 4.984-2.806 8.012.96 1.366 3.212 2.178 6.092 2.178 4.173 0 6.425-1.587 6.683-4.689.185-2.29-.701-4.062-2.584-5.022-1.81-.923-5.539-1.181-7.385-.48Z"/></g><path fill="#7F01FD" d="m36.5 0 .367.626a7 7 0 0 0 2.507 2.507L40 3.5l-.627.367a7 7 0 0 0-2.506 2.507L36.5 7l-.367-.626a7 7 0 0 0-2.507-2.507L33 3.5l.627-.367A7 7 0 0 0 36.133.626L36.5 0Z"/><path fill="#FF4D65" d="m38 7 .21.358a4 4 0 0 0 1.432 1.433L40 9l-.358.21a4.001 4.001 0 0 0-1.433 1.432L38 11l-.21-.358a4.001 4.001 0 0 0-1.432-1.433L36 9l.358-.21a4 4 0 0 0 1.433-1.432L38 7Z"/><path fill="#7F01FD" d="m1.114 1.244 7.533 4.21A5.471 5.471 0 0 0 3.36 9.182l-.17.51-2.075-8.448Z"/><circle cx="1.562" cy="1.608" r="1.418" fill="#FF4D65" transform="rotate(-61.234 1.562 1.608)"/></g><defs><clipPath id="clip0_1838_17051"><path fill="#fff" d="M0 0h40v18H0z"/></clipPath><clipPath id="clip1_1838_17051"><path fill="#fff" d="M2 1.8h32v14.4H2z"/></clipPath></defs></svg>